<?xml version="1.0"?>
<svg xmlns="http://www.w3.org/2000/svg" viewBox="0 0 64 64" width="512px" height="512px"><g><g id="Search-Tracking"><path d="M25,6A19,19,0,1,0,44,25,19.021,19.021,0,0,0,25,6Zm0,36A17,17,0,1,1,42,25,17.019,17.019,0,0,1,25,42Z" data-original="#000000" class="active-path" data-old_color="#000000" fill="#FFFFFF"/><path d="M34,15H16a2,2,0,0,0-2,2V33a2,2,0,0,0,2,2H34a2,2,0,0,0,2-2V17A2,2,0,0,0,34,15Zm0,4H28V17h6Zm-8-2v6H24V17Zm-4,0v2H16V17ZM16,33V21h6v3a1,1,0,0,0,1,1h4a1,1,0,0,0,1-1V21h6V33Z" data-original="#000000" class="active-path" data-old_color="#000000" fill="#FFFFFF"/><rect x="28" y="29" width="4" height="2" data-original="#000000" class="active-path" data-old_color="#000000" fill="#FFFFFF"/><rect x="24" y="29" width="2" height="2" data-original="#000000" class="active-path" data-old_color="#000000" fill="#FFFFFF"/><path d="M61.062,53.992,48.334,41.264a1.029,1.029,0,0,0-1.414,0l-.706.706-2.978-2.978a23.036,23.036,0,1,0-4.244,4.244l2.978,2.978-.706.706a1,1,0,0,0,0,1.414L53.991,61.062a5,5,0,1,0,7.071-7.07ZM4,25A21,21,0,1,1,25,46,21.024,21.024,0,0,1,4,25ZM41.947,40.531,44.8,43.38,43.38,44.8l-2.849-2.849Q41.269,41.271,41.947,40.531Zm17.7,19.117a3.005,3.005,0,0,1-4.243,0L43.385,47.627l4.242-4.242L59.648,55.406A3,3,0,0,1,59.648,59.648Z" data-original="#000000" class="active-path" data-old_color="#000000" fill="#FFFFFF"/></g></g> </svg>
